<svg width="18" height="18" viewBox="0 0 18 18" fill="none" xmlns="http://www.w3.org/2000/svg">
<g id="Iconly/Bulk/Buy">
<g id="Buy">
<path id="Combined Shape" opacity="0.4" fill-rule="evenodd" clip-rule="evenodd" d="M4.43298 15.4414C4.43298 14.8114 4.94298 14.3014 5.57298 14.3014C6.19548 14.3014 6.70548 14.8114 6.70548 15.4414C6.70548 16.0639 6.19548 16.5739 5.57298 16.5739C4.94298 16.5739 4.43298 16.0639 4.43298 15.4414ZM12.8705 15.4414C12.8705 14.8114 13.3805 14.3014 14.0105 14.3014C14.633 14.3014 15.143 14.8114 15.143 15.4414C15.143 16.0639 14.633 16.5739 14.0105 16.5739C13.3805 16.5739 12.8705 16.0639 12.8705 15.4414Z" fill="#A8A8A8"/>
<path id="Fill 7" fill-rule="evenodd" clip-rule="evenodd" d="M15.1431 4.76175C15.6006 4.76175 15.9006 4.91925 16.2006 5.26425C16.5006 5.60925 16.5531 6.10425 16.4856 6.5535L15.7731 11.4735C15.6381 12.4193 14.8281 13.116 13.8756 13.116H5.69312C4.69562 13.116 3.87062 12.351 3.78812 11.3618L3.09812 3.186L1.96562 2.991C1.66562 2.9385 1.45562 2.646 1.50812 2.346C1.56062 2.0385 1.85312 1.836 2.16062 1.881L3.94937 2.151C4.20437 2.19675 4.39187 2.406 4.41437 2.661L4.55687 4.341C4.57937 4.58175 4.77437 4.76175 5.01437 4.76175H15.1431ZM10.5981 8.661H12.6756C12.9906 8.661 13.2381 8.406 13.2381 8.0985C13.2381 7.7835 12.9906 7.536 12.6756 7.536H10.5981C10.2831 7.536 10.0356 7.7835 10.0356 8.0985C10.0356 8.406 10.2831 8.661 10.5981 8.661Z" fill="#A8A8A8"/>
</g>
</g>
</svg>
