<svg width="18" height="18" viewBox="0 0 18 18" fill="none" xmlns="http://www.w3.org/2000/svg">
<g id="Iconly/Bulk/Logout">
<g id="Logout">
<path id="Fill 1" opacity="0.4" d="M1.5 4.83525C1.5 2.997 3.02268 1.5 4.8934 1.5H8.61423C10.4811 1.5 12 2.9925 12 4.82775V13.1648C12 15.0037 10.4773 16.5 8.60584 16.5H4.88653C3.01886 16.5 1.5 15.0075 1.5 13.1722V12.4672V4.83525Z" fill="#A8A8A8"/>
<path id="Fill 3" d="M16.3342 8.5911L14.1998 6.40935C13.9792 6.18435 13.6242 6.18435 13.4044 6.41085C13.1852 6.63735 13.186 7.0026 13.4058 7.2276L14.5753 8.42235H13.454H7.16131C6.85088 8.42235 6.59888 8.6811 6.59888 8.99985C6.59888 9.31935 6.85088 9.57735 7.16131 9.57735H14.5753L13.4058 10.7721C13.186 10.9971 13.1852 11.3623 13.4044 11.5888C13.5147 11.7021 13.6586 11.7591 13.8032 11.7591C13.9464 11.7591 14.0903 11.7021 14.1998 11.5903L16.3342 9.40935C16.4401 9.3006 16.5 9.1536 16.5 8.99985C16.5 8.84685 16.4401 8.69985 16.3342 8.5911Z" fill="#A8A8A8"/>
</g>
</g>
</svg>
